# xmcd
#
# Track frame offsets:
#	150
#	15215
#	34116
#	52294
#	67090
#	81559
#	100605
#	123505
#	142008
#	155874
#	173470
#	194616
#	217721
#	238953
#	256643
#	275895
#	295429
#
# Disc length: 4148 seconds
#
# Revision: 0
# Processed by: cddbd v1.5.1PL2 Copyright (c) Steve Scherf et al.
# Submitted via: dBpowerAMP V4.0
#
DISCID=04103211
DTITLE=SFAKIANAKIS - ANA...GENNHSIS
DYEAR=2005
DGENRE=
TTITLE0=LABVMATIA
TTITLE1=I CIXI MOY PERIMENI
TTITLE2=KI AN ME BREIS
TTITLE3=EXEIS TON TROPO
TTITLE4=DIO XEIROBOMBIDES
TTITLE5=KALI SOY TIXI
TTITLE6=XANOMAI KARDIA MOY
TTITLE7=PAR'TON DROMO
TTITLE8=THYSIASTIKA
TTITLE9=THEIA DIKH
TTITLE10=FILE
TTITLE11=MHN PLHSIAZEIS
TTITLE12=TO OMORFOTERO CEMA
TTITLE13=APOCE
TTITLE14=DIEFTHARMENH SINOYSIA
TTITLE15=еккада лоу
TTITLE16=EINAI NA APOREIS
EXTD=
EXTT0=
EXTT1=
EXTT2=
EXTT3=
EXTT4=
EXTT5=
EXTT6=
EXTT7=
EXTT8=
EXTT9=
EXTT10=
EXTT11=
EXTT12=
EXTT13=
EXTT14=
EXTT15=
EXTT16=
PLAYORDER=
